<?xml version="1.0" encoding="UTF-8"?>
<!DOCTYPE svg PUBLIC "-//W3C//DTD SVG 1.1//EN" "http://www.w3.org/Graphics/SVG/1.1/DTD/svg11.dtd">
<!-- Creator: CorelDRAW X8 -->
<svg xmlns="http://www.w3.org/2000/svg" xml:space="preserve" width="3.87343in" height="2.92165in" version="1.1" style="shape-rendering:geometricPrecision; text-rendering:geometricPrecision; image-rendering:optimizeQuality; fill-rule:evenodd; clip-rule:evenodd"
viewBox="0 0 4519 3408"
 xmlns:xlink="http://www.w3.org/1999/xlink">
 <defs>
  <style type="text/css">
   <![CDATA[
    .fil0 {fill:#00981D}
    .fil1 {fill:white}
   ]]>
  </style>
 </defs>
 <g id="Layer_x0020_1">
  <metadata id="CorelCorpID_0Corel-Layer"/>
  <g id="_1382664375232">
   <path class="fil0" d="M0 2660l0 748 4518 0 1 -748c-85,-16 -171,-37 -257,-55 -88,-18 -176,-34 -264,-49 -571,-96 -1153,-145 -1736,-142 -398,1 -796,22 -1186,66 -261,29 -558,70 -815,123l-261 57z"/>
   <path class="fil1" d="M57 2704l0 648 4405 0c5,-68 1,-464 1,-566 0,-43 7,-76 -11,-83 -14,-6 -61,-13 -79,-17 -1383,-296 -2944,-289 -4316,18z"/>
   <path class="fil0" d="M2232 3c-53,11 -76,56 -111,106l-366 515c-44,64 -46,96 -2,161 60,86 124,170 185,257 18,26 24,38 57,52 95,41 185,-69 142,-155 -49,-94 -184,-193 -130,-289l94 -127c16,-21 30,-40 46,-62 37,-49 85,-81 149,-48 38,21 116,149 144,189 92,131 80,124 -31,287 -208,304 -414,618 -622,918 -27,39 -55,100 -109,112 -79,17 -110,-42 -140,-81 -33,-43 -63,-84 -95,-125 -130,-168 -255,-336 -382,-503 -45,-61 -23,-107 13,-154l141 -188c17,-19 39,-37 75,-39 72,-4 99,54 129,94 31,42 61,86 90,127 87,121 49,126 -55,290 -35,56 -45,107 5,156 44,43 114,44 154,-1 22,-24 142,-222 173,-269 45,-67 31,-103 -9,-160 -61,-86 -121,-172 -184,-259 -62,-86 -120,-172 -183,-258 -29,-40 -53,-95 -124,-94 -67,1 -94,60 -123,98 -63,87 -123,172 -185,257 -62,85 -124,170 -185,256 -41,58 -49,98 -1,159 159,204 318,421 476,625 86,112 205,263 287,376 28,39 67,94 144,68 45,-14 76,-74 104,-113 31,-44 59,-87 91,-130l270 -389c31,-45 89,-76 153,-35 31,20 160,220 185,256 33,48 243,364 270,389 50,45 122,28 154,-14 254,-330 505,-676 758,-1006 96,-126 50,-145 -48,-282l-275 -383c-22,-32 -71,-106 -99,-122 -25,-14 -60,-19 -89,-8 -34,11 -43,27 -61,51l-183 259c-65,95 -174,238 -228,323 -49,76 26,148 79,224 31,45 61,85 91,129 29,41 66,98 144,73 49,-16 92,-73 66,-141 -32,-85 -187,-180 -112,-288l139 -190c34,-46 76,-86 145,-56 39,17 117,134 151,178 17,21 31,40 47,61 64,87 -19,153 -70,223l-193 249c-65,82 -127,167 -193,249 -46,58 -97,160 -196,107 -27,-15 -36,-34 -53,-60l-262 -401c-95,-146 -90,-128 17,-291l262 -396c44,-68 3,-118 -28,-161 -31,-44 -61,-86 -92,-129 -62,-86 -124,-171 -184,-258 -30,-44 -60,-85 -92,-129 -29,-39 -59,-96 -135,-80z"/>
   <path class="fil0" d="M2631 3314l206 0c-13,-31 -33,-15 -33,-60 0,-61 -3,-253 2,-287l83 205 142 0c17,-30 60,-154 84,-205l1 287c0,24 -1,34 -34,59l209 1c-13,-31 -32,-15 -32,-60l0 -580c-1,-56 9,-36 32,-67 -199,-2 -169,-17 -193,43 -7,17 -13,31 -19,48 -21,52 -106,277 -121,293l-153 -385 -174 0c35,55 32,-18 32,164l0 479c1,52 -18,32 -32,65z"/>
   <path class="fil0" d="M957 2690l0 538c0,21 19,34 30,45 8,8 30,34 38,38 14,8 281,5 290,0 0,0 68,-56 68,-83l0 -538c0,-24 -22,-36 -35,-49 -12,-12 -26,-35 -49,-35l-259 0c-17,0 -83,62 -83,84z"/>
   <path class="fil0" d="M746 2655c-9,52 -2,207 -1,269 0,58 -37,124 -58,180l-14 25c-17,-29 -70,-160 -70,-192 1,-90 1,-179 1,-269l-141 12c-9,63 1,191 -1,261 0,28 -58,176 -72,192 -13,-36 -69,-157 -70,-184 -4,-81 0,-173 0,-256 -35,2 -71,7 -105,9 -25,2 -35,-3 -37,17 -1,15 0,43 0,59 0,230 -13,148 76,373 19,47 44,122 66,163l142 0 70 -173c18,23 52,135 72,173l139 0c11,-16 142,-340 144,-361l0 -310 -141 12z"/>
   <path class="fil0" d="M1457 2657l0 613c0,21 -22,27 -32,44l206 0c-11,-22 -33,-23 -33,-48l0 -235 142 1 0 238c-2,24 -21,26 -31,44l206 0c-16,-38 -33,-5 -33,-73l1 -217c-1,-38 -32,-40 -46,-67 15,-12 46,-38 46,-58l0 -209c0,-23 -23,-35 -35,-48 -14,-13 -27,-36 -53,-36 -104,0 -274,-4 -371,0 13,21 33,23 33,51z"/>
   <path class="fil0" d="M3332 3314l205 0c-29,-50 -31,20 -31,-123 0,-53 0,-106 0,-159l142 -1 -1 239c-3,22 -22,23 -32,44l206 0c-32,-54 -32,30 -32,-169l0 -413c0,-58 8,-50 -24,-81 -9,-9 -15,-15 -25,-25 -11,-12 -14,-20 -35,-20l-254 0c-25,0 -45,30 -58,43 -31,31 -29,16 -29,75l0 521c1,60 -16,34 -32,69z"/>
   <path class="fil0" d="M3862 3314l208 0c-44,-51 -34,-8 -34,-152 0,-62 -3,-133 1,-194 24,55 47,113 71,171 21,54 45,124 71,175l174 0c-43,-42 -33,-34 -33,-115 0,-66 3,-438 -2,-471l-139 -25 0 244c-14,-10 -51,-114 -58,-130 -17,-42 -34,-93 -53,-131 -14,-7 -151,-30 -173,-31 -9,89 6,479 0,607 -2,30 -20,31 -33,52z"/>
   <path class="fil0" d="M2226 1731c-31,15 -75,91 -96,122l-219 323c-13,18 -37,45 -37,72 -1,43 61,105 120,20l182 -252c28,-41 70,-99 125,-28l181 253c26,37 58,99 130,87 26,-5 49,-32 48,-63 -2,-32 -108,-165 -131,-196l-182 -252c-32,-47 -67,-113 -121,-86z"/>
   <path class="fil0" d="M2159 3186c22,-12 86,-88 112,-111 16,13 105,127 126,153 39,49 21,41 99,40 46,-1 91,-1 138,-3 -13,-23 -203,-242 -238,-291 -9,-11 -4,-2 -8,-12l245 -250c-32,-2 -205,3 -223,13l-65 52c-12,10 -20,18 -32,27 -36,28 -114,112 -140,160 -25,47 -15,161 -14,222z"/>
   <path class="fil0" d="M2129 2597c0,31 8,115 -4,135 -1,1 -63,59 -71,65 -2,-1 -67,-63 -69,-67 -11,-16 -7,-104 -7,-133 -39,24 -71,108 -55,170 7,30 25,54 40,73 31,38 24,13 24,92 0,46 -6,309 5,341 10,28 35,51 70,48 80,-6 66,-117 66,-163 -1,-76 -1,-150 -2,-226 -2,-140 18,-27 58,-169 20,-69 -11,-140 -55,-166z"/>
   <polygon class="fil1" points="1099,3171 1115,3172 1224,3172 1241,3172 1241,2747 1099,2747 "/>
   <path class="fil1" d="M1600 2889l139 0 1 -142 -139 0c-6,19 -5,120 -1,142z"/>
   <polygon class="fil1" points="3506,2889 3522,2889 3630,2889 3646,2889 3648,2747 3506,2747 "/>
  </g>
 </g>
</svg>
